<?xml version="1.0" encoding="utf-8"?>
<!-- Generator: Adobe Illustrator 19.0.0, SVG Export Plug-In . SVG Version: 6.00 Build 0)  -->
<svg version="1.1" id="Layer_1" xmlns="http://www.w3.org/2000/svg" xmlns:xlink="http://www.w3.org/1999/xlink" x="0px" y="0px"
	 viewBox="-447 249 64 64" style="enable-background:new -447 249 64 64;" xml:space="preserve">
<style type="text/css">
	.st0{fill:#8C623B;}
	.st1{fill:#FFFFFF;}
	.st2{fill:none;stroke:#2C3E50;stroke-width:2;stroke-linecap:round;stroke-linejoin:round;stroke-miterlimit:10;}
	.st3{fill:#EA685E;}
	@keyframes wave {
		0% {
			transform: rotate(5deg);
		}
		50% {
			transform: rotate(9deg);
		}
		80% {
			transform: rotate(5deg);
		}
	}
	#flag {
		transform: rotate(5deg);
		transform-origin: -422px 269px;
		animation: wave 0.8s infinite;
		animation-timing-function: ease-in-out;
	}
</style>
<path class="st0" d="M-386.6,302.7l-21.1-31.9c-0.7-1.1-2.4-1.1-3.1,0l-4.7,7.3l-5.1-7.3c-0.7-1.1-2.4-1.1-3.1,0l-19.7,31.9H-386.6z
	"/>
<path class="st1" d="M-410.8,270.8l-9.7,15.2l-0.1,0.3l7.1-0.7l2.1,4.6l4.1-5.5l11.8,17.9h8.9l-21.1-31.8
	C-408.5,269.7-410.1,269.7-410.8,270.8z"/>
<polyline class="st2" points="-420.5,286.3 -413.5,285.6 -411.3,290.2 -407.2,284.7 -395.4,302.7 "/>
<path class="st1" d="M-423.6,270.8l-4.8,7.8l4.1-2.3l2.1,4.6l6.6-2.7l-4.9-7.4C-421.2,269.7-422.9,269.7-423.6,270.8z"/>
<polyline class="st2" points="-428.4,278.6 -424.3,276.3 -422.2,280.9 -415.6,278.2 "/>
<line class="st2" x1="-403" y1="284.7" x2="-391.2" y2="302.7"/>
<path class="st2" d="M-431,302.7l20.2-31.9c0.7-1.1,2.4-1.2,3.1,0l21.2,31.9"/>
<path class="st2" d="M-443.4,302.7l19.8-31.9c0.7-1.1,2.4-1.2,3.1,0l4.9,7.4"/>
<g id="flag">
	<polyline class="st3" points="-422,259 -412,259 -414,262.3 -412,265 -422,265 "/>
	<line class="st2" x1="-422" y1="269" x2="-422" y2="259"/>
	<polyline class="st2" points="-419,259 -412,259 -414,262.3 -412,265 -419,265 "/>
</g>
<path class="st2" d="M-406.6,301.9l-14.5-5.5c-0.3-0.1-0.6-0.2-0.8-0.2c-9.3-1.9-14.1-5.9-5.4-10.2l0,0c2.4-1.2,6.2-5.1,6.3-7.3
	c0-2.2-1.1-8.6-1.1-8.6"/>
</svg>
