<?xml version="1.0" encoding="utf-8"?>
<!-- Generator: Adobe Illustrator 19.0.0, SVG Export Plug-In . SVG Version: 6.00 Build 0)  -->
<svg version="1.1" id="Layer_1" xmlns="http://www.w3.org/2000/svg" xmlns:xlink="http://www.w3.org/1999/xlink" x="0px" y="0px"
	 width="273px" height="273px" viewBox="0 0 273 273" style="enable-background:new 0 0 273 273;" xml:space="preserve">
<style type="text/css">
	.coin {fill: #F7D80E;}
	.st0{stroke:#764016;stroke-width:3;stroke-miterlimit:10;}
	.st1{stroke:#764016;stroke-width:2;stroke-miterlimit:10;}
	.st2{stroke:#764016;stroke-miterlimit:10;}
	.st3{fill:#DEBF00;}
</style>
<circle id="XMLID_1_" class="st0 coin" cx="136.5" cy="136.5" r="135"/>
<ellipse id="XMLID_2_" class="st1 coin" cx="136.5" cy="132" rx="135" ry="130.5"/>
<ellipse id="XMLID_62_" class="st2 coin" cx="136.5" cy="132" rx="127.5" ry="123.2"/>
<line id="XMLID_4_" class="st2" x1="25" y1="205.5" x2="25" y2="212.5"/>
<line id="XMLID_46_" class="st2" x1="19" y1="196.5" x2="19" y2="203.5"/>
<line id="XMLID_47_" class="st2" x1="13" y1="184.5" x2="13" y2="191.5"/>
<line id="XMLID_48_" class="st2" x1="7" y1="168.5" x2="7" y2="174.5"/>
<line id="XMLID_5_" class="st2" x1="31" y1="213.5" x2="31" y2="220.5"/>
<line id="XMLID_6_" class="st2" x1="37" y1="220.5" x2="37" y2="227.5"/>
<line id="XMLID_7_" class="st2" x1="43" y1="226.5" x2="43" y2="233.5"/>
<line id="XMLID_8_" class="st2" x1="49" y1="231.5" x2="49" y2="239.5"/>
<line id="XMLID_9_" class="st2" x1="55" y1="236.5" x2="55" y2="244.5"/>
<line id="XMLID_10_" class="st2" x1="61" y1="240.5" x2="61" y2="248.5"/>
<line id="XMLID_11_" class="st2" x1="67" y1="243.5" x2="67" y2="252.5"/>
<line id="XMLID_12_" class="st2" x1="73" y1="247.5" x2="73" y2="255.5"/>
<line id="XMLID_13_" class="st2" x1="79" y1="250.5" x2="79" y2="258.5"/>
<line id="XMLID_14_" class="st2" x1="85" y1="252.5" x2="85" y2="261.5"/>
<line id="XMLID_15_" class="st2" x1="91" y1="254.5" x2="91" y2="263.5"/>
<line id="XMLID_16_" class="st2" x1="97" y1="256.5" x2="97" y2="265.5"/>
<line id="XMLID_17_" class="st2" x1="103" y1="258.5" x2="103" y2="267.5"/>
<line id="XMLID_18_" class="st2" x1="109" y1="259.5" x2="109" y2="268.5"/>
<line id="XMLID_19_" class="st2" x1="115" y1="260.5" x2="115" y2="269.5"/>
<line id="XMLID_20_" class="st2" x1="121" y1="261.5" x2="121" y2="270.5"/>
<line id="XMLID_21_" class="st2" x1="127" y1="262.5" x2="127" y2="271.5"/>
<line id="XMLID_22_" class="st2" x1="133" y1="262.5" x2="133" y2="271.5"/>
<line id="XMLID_23_" class="st2" x1="139" y1="262.5" x2="139" y2="271.5"/>
<line id="XMLID_24_" class="st2" x1="145" y1="262.5" x2="145" y2="271.5"/>
<line id="XMLID_25_" class="st2" x1="151" y1="261.5" x2="151" y2="270.5"/>
<line id="XMLID_27_" class="st2" x1="157" y1="260.5" x2="157" y2="269.5"/>
<line id="XMLID_26_" class="st2" x1="163" y1="259.5" x2="163" y2="268.5"/>
<line id="XMLID_28_" class="st2" x1="169" y1="258.5" x2="169" y2="267.5"/>
<line id="XMLID_29_" class="st2" x1="175" y1="257.5" x2="175" y2="265.5"/>
<line id="XMLID_30_" class="st2" x1="181" y1="255.5" x2="181" y2="264"/>
<line id="XMLID_31_" class="st2" x1="187" y1="253.5" x2="187" y2="261.5"/>
<line id="XMLID_32_" class="st2" x1="193" y1="250.5" x2="193" y2="259.5"/>
<line id="XMLID_33_" class="st2" x1="199" y1="247.5" x2="199" y2="256.5"/>
<line id="XMLID_34_" class="st2" x1="205" y1="244.5" x2="205" y2="252.5"/>
<line id="XMLID_35_" class="st2" x1="211" y1="240.5" x2="211" y2="249.5"/>
<line id="XMLID_36_" class="st2" x1="217" y1="236.5" x2="217" y2="244.5"/>
<line id="XMLID_37_" class="st2" x1="223" y1="232.5" x2="223" y2="240.5"/>
<line id="XMLID_38_" class="st2" x1="229" y1="226.5" x2="229" y2="234.5"/>
<line id="XMLID_39_" class="st2" x1="235" y1="221.5" x2="235" y2="228.5"/>
<line id="XMLID_40_" class="st2" x1="241" y1="214.5" x2="241" y2="221.5"/>
<line id="XMLID_41_" class="st2" x1="247" y1="206.5" x2="247" y2="214.5"/>
<line id="XMLID_42_" class="st2" x1="253" y1="197.5" x2="253" y2="204.5"/>
<line id="XMLID_43_" class="st2" x1="259" y1="186.5" x2="259" y2="193.5"/>
<line id="XMLID_44_" class="st2" x1="265" y1="171.5" x2="265" y2="178.5"/>
<path id="XMLID_3_" class="st2" d="M271,193.5"/>
<g id="layer1" transform="translate(-710.9656,-414.3609)">
	<path id="path2078" class="st3" d="M846.9,543.4c5.7,0.6,12.5,1.9,15.5,7.2c2.2,3.1,4.1,6.5,6.9,9.2c4.9,2.4,9.8,5.2,13.3,9.3
		c4.4,6.3,3.1,15.3-2,20.9c-5.7,5-14,7.5-21.6,5.7c-4.9-0.9-9.8-3.7-14.8-2.1c-4.7,1.3-9.4,3.3-14.4,2.7c-4.8-0.2-9-2.4-13-4.6
		c-4.7-2.9-7.6-8.1-7.3-13.4c0-8,6.3-14.6,13.4-18.1c3-1.4,6.2-2.9,7.6-6.1c2.1-3.6,3.9-8.1,8.4-9.4
		C841.4,543.9,844.1,543.5,846.9,543.4z"/>
	<path id="path2040" class="st3" d="M797.2,535.7c1.2-4.1,4.7-7.9,9.3-8.5c3.3-0.4,6.7,0.4,9.6,1.9c5.3,3.4,8.4,9.1,10.1,14.8
		c0.9,2.7,1.5,5.6,0.8,8.5c-0.7,3.3-3.2,6.2-6.5,7.5c-4.2,2.4-9.8,2.1-13.9-0.6c-2.4-1.5-4.5-3.5-5.8-6
		C797.8,548,795.7,541.8,797.2,535.7z"/>
	<path id="path2071" class="st3" d="M837,505.3c0,0,7,0,10.9,8.7c0,0,2.7,5.6,1.7,14.2c0,0-0.1,8.6-5.5,12.2c0,0-7.3,6.4-15.7-2.2
		c0,0-5.9-6-7-14.5c0,0-1.3-8.8,4.4-14C825.9,509.6,830.7,505.3,837,505.3z"/>
	<path id="path2073" class="st3" d="M871.6,506.6c0,0,8.7,2.5,7.7,11.9c0,0,0.5,7.6-4.2,14.5c0,0-4.8,8.6-11.1,9.5
		c0,0-7,2.1-12.1-8.2c0,0-3.6-11.7,2-19.5C853.9,514.8,860.5,503.2,871.6,506.6z"/>
	<path id="path2075" class="st3" d="M890.8,530c4.1,1.2,6.9,5,7.3,9c0.4,3.6-0.5,7.2-1.8,10.6c-2.1,4.9-5.8,9.2-10.5,12
		c-3.5,1.9-8,1.1-11.2-1c-1.3-0.6-2.1-1.8-2.7-3c-2.2-4.1-2.5-9.1-0.5-13.4c1.7-4,3.7-8.1,7.2-10.9c2.7-2.3,6.1-4.2,9.8-3.8
		C889.3,529.6,890.1,529.7,890.8,530z"/>
</g>
</svg>
